<svg width="143" height="56" viewBox="0 0 143 56" fill="none" xmlns="http://www.w3.org/2000/svg">
<path d="M75.3999 38.5001L76.7999 38.7001C76.712 39.0708 76.552 39.4206 76.329 39.7295C76.1059 40.0383 75.8242 40.3002 75.4999 40.5001C74.7398 40.9964 73.8364 41.2263 72.9316 41.1539C72.0267 41.0815 71.1714 40.7109 70.4999 40.1001C69.7884 39.2686 69.4296 38.1922 69.4999 37.1001C69.4467 35.9324 69.84 34.7883 70.5999 33.9001C70.9494 33.5461 71.3723 33.273 71.8388 33.1002C72.3053 32.9274 72.8041 32.8591 73.2999 32.9001C73.7876 32.8797 74.2738 32.9678 74.7234 33.1581C75.1731 33.3483 75.5748 33.6359 75.8999 34.0001C76.2519 34.429 76.5131 34.925 76.6678 35.4578C76.8225 35.9907 76.8674 36.5494 76.7999 37.1001V37.4001H70.8999C70.8668 38.1624 71.1161 38.9101 71.5999 39.5001C71.8233 39.7228 72.0885 39.8992 72.3802 40.0194C72.6719 40.1395 72.9844 40.2009 73.2999 40.2001C73.7364 40.2261 74.1662 40.0828 74.4999 39.8001C74.9229 39.4663 75.2363 39.0135 75.3999 38.5001ZM70.9999 36.2001H75.3999C75.379 35.6935 75.2046 35.2053 74.8999 34.8001C74.7085 34.5572 74.4659 34.3595 74.1893 34.2212C73.9127 34.0829 73.609 34.0074 73.2999 34.0001C72.7093 33.9872 72.1364 34.2021 71.6999 34.6001C71.2739 35.0266 71.024 35.5978 70.9999 36.2001Z" fill="#010101"/>
<path d="M77.6001 41.1V33.1H78.9001V34.3C79.1081 33.8941 79.378 33.523 79.7001 33.2C79.8231 33.0969 79.969 33.0249 80.1257 32.9901C80.2823 32.9553 80.445 32.9587 80.6001 33C81.0978 32.9782 81.5891 33.1186 82.0001 33.4L81.5001 34.6C81.2065 34.3976 80.8566 34.2927 80.5001 34.3C80.3535 34.2941 80.2072 34.3177 80.0698 34.3692C79.9324 34.4207 79.8067 34.4992 79.7001 34.6C79.4793 34.7895 79.3077 35.0297 79.2001 35.3C79.0354 35.8165 78.9676 36.3589 79.0001 36.9V41.1H77.6001Z" fill="#010101"/>
<path d="M85.1998 41.1001L82.2998 33.1001H83.6998L85.3998 37.8001C85.5201 38.3794 85.6873 38.9479 85.8998 39.5001C86.0348 38.9574 86.2018 38.4231 86.3998 37.9001L88.1998 33.1001H89.5998L86.4998 41.1001H85.1998Z" fill="#010101"/>
<path d="M90.7997 31.8001V30.2001H92.1997V31.8001H90.7997ZM90.6997 41.2001V33.2001H91.9997V41.1001L90.6997 41.2001Z" fill="#010101"/>
<path fill-rule="evenodd" clip-rule="evenodd" d="M142.441 6.69916L82.3411 11.6992L82.3342 11.6997C80.1561 11.8721 78.0962 12.7605 76.476 14.2264C74.8558 15.6923 73.7663 17.6533 73.3776 19.8034L72.9839 21.9687C72.9208 22.4347 72.8935 22.9047 72.9023 23.3748C73.0673 24.6197 73.7047 25.7547 74.6841 26.5436C75.6827 27.348 76.957 27.7285 78.2332 27.6032L78.2391 27.6026L95.1475 26.0018L95.156 26.0011C98.1637 25.7467 101.159 26.6158 103.563 28.4405C105.958 30.2582 107.598 32.8957 108.168 35.8471C108.351 36.64 108.488 37.4428 108.577 38.2514C108.766 38.8889 108.844 39.5544 108.807 40.2187C108.87 41.8816 108.612 43.5414 108.045 45.1065C107.467 46.7019 106.58 48.1677 105.435 49.4198C104.289 50.672 102.908 51.6861 101.371 52.404C99.8334 53.1218 98.1694 53.5294 96.4741 53.6034L96.4718 53.6035L42.0718 55.9035L41.9277 52.4966L96.3254 50.1967L96.3277 50.1966C97.5742 50.1418 98.7977 49.842 99.9283 49.3141C101.06 48.786 102.076 48.0399 102.918 47.1185C103.761 46.1972 104.413 45.1188 104.839 43.945C105.264 42.7711 105.453 41.525 105.397 40.2778L105.392 40.1761L105.399 40.0747C105.423 39.7585 105.383 39.4408 105.283 39.1401L105.223 38.9613L105.204 38.7738C105.128 38.0375 105.006 37.3067 104.839 36.5858L104.831 36.5524L104.825 36.5187C104.418 34.382 103.234 32.4717 101.502 31.1568C99.7713 29.8435 97.6162 29.2172 95.4516 29.3983L78.5664 30.9969L78.5632 30.9972C76.3991 31.2088 74.2383 30.5633 72.5449 29.1992C70.8507 27.8344 69.7596 25.8593 69.5063 23.6985L69.4975 23.6228L69.4954 23.5466C69.4764 22.8507 69.5151 22.1545 69.611 21.465L69.6159 21.4299L70.022 19.1967L70.0222 19.1954V19.1954C70.5452 16.305 72.01 13.6685 74.1882 11.6978C76.3659 9.72745 79.1343 8.53302 82.0618 8.30062L82.0653 8.30034L142.158 3.3009L142.441 6.69916Z" fill="#010101"/>
<path d="M110.2 37.4C110.195 36.8072 110.307 36.2194 110.53 35.6703C110.753 35.1211 111.083 34.6214 111.5 34.2C112.239 33.5873 113.178 33.269 114.138 33.3059C115.097 33.3428 116.009 33.7323 116.7 34.4C117.057 34.8089 117.329 35.2847 117.5 35.7997C117.672 36.3147 117.74 36.8586 117.7 37.4C117.739 38.2294 117.567 39.0552 117.2 39.8C116.904 40.3782 116.454 40.8629 115.9 41.2C115.272 41.4846 114.588 41.6215 113.9 41.6C113.395 41.6436 112.886 41.5665 112.417 41.3753C111.948 41.1841 111.53 40.884 111.2 40.5C110.499 39.6232 110.144 38.5207 110.2 37.4ZM111.6 37.5C111.569 38.2925 111.817 39.0707 112.3 39.7C112.475 39.9355 112.697 40.1318 112.952 40.2761C113.208 40.4204 113.491 40.5096 113.783 40.5378C114.075 40.5661 114.37 40.5328 114.648 40.4402C114.927 40.3476 115.183 40.1976 115.4 40L115.6 39.8C116.123 39.1534 116.374 38.3285 116.3 37.5C116.351 36.6889 116.14 35.8827 115.7 35.2C115.297 34.7567 114.738 34.4878 114.14 34.4505C113.543 34.4131 112.954 34.6102 112.5 35C112.4 35 112.4 35.1 112.3 35.2C111.802 35.8599 111.554 36.6747 111.6 37.5Z" fill="#010101"/>
<path d="M119.4 41.5V34.6H118.2V33.5H119.4V32.6C119.417 32.1934 119.484 31.7904 119.6 31.4C119.747 31.0689 119.991 30.7901 120.3 30.6C120.497 30.4512 120.725 30.3472 120.967 30.2954C121.208 30.2436 121.459 30.2452 121.7 30.3H122.9L122.7 31.5H121.9L121.1 31.7C120.983 31.8369 120.897 31.9964 120.845 32.1686C120.793 32.3407 120.778 32.5216 120.8 32.7V33.5H122.3V34.5H120.9V41.4L119.4 41.5Z" fill="#010101"/>
<path d="M126.7 40.4L126.9 41.6H125.9C125.482 41.5942 125.071 41.4915 124.7 41.3C124.58 41.2387 124.474 41.1539 124.389 41.0509C124.303 40.9478 124.238 40.8285 124.2 40.7C124.078 40.175 124.011 39.6388 124 39.1V34.6H123V33.6H124V31.7L125.4 30.9V33.6H126.8V34.6H125.4V40L125.7 40.3H126.7V40.4Z" fill="#010101"/>
<path d="M127.5 39.2001L128.9 39.0001C128.905 39.2463 128.961 39.4887 129.065 39.7123C129.168 39.9359 129.316 40.136 129.5 40.3001C129.911 40.5815 130.402 40.7219 130.9 40.7001C131.148 40.7346 131.401 40.7168 131.642 40.648C131.883 40.5791 132.107 40.4606 132.3 40.3001C132.424 40.2069 132.525 40.0862 132.594 39.9473C132.663 39.8084 132.7 39.6553 132.7 39.5001C132.7 39.3448 132.663 39.1917 132.594 39.0529C132.525 38.914 132.424 38.7932 132.3 38.7001L131 38.3001L128.9 37.6001C128.561 37.416 128.284 37.1382 128.1 36.8001C127.908 36.5013 127.804 36.1549 127.8 35.8001C127.809 35.4578 127.876 35.1196 128 34.8001C128.178 34.4897 128.415 34.2177 128.7 34.0001L129.6 33.6001H130.7C131.28 33.5943 131.856 33.696 132.4 33.9001C132.804 34.0098 133.158 34.2574 133.4 34.6001C133.655 34.9571 133.826 35.3674 133.9 35.8001H132.6C132.497 35.4457 132.287 35.1315 132 34.9001C131.837 34.7554 131.647 34.6452 131.441 34.5765C131.234 34.5077 131.016 34.4817 130.8 34.5001C130.35 34.5045 129.906 34.6069 129.5 34.8001C129.388 34.8826 129.295 34.9875 129.226 35.108C129.157 35.2285 129.114 35.362 129.1 35.5001C129.106 35.6849 129.177 35.8615 129.3 36.0001C129.418 36.1846 129.594 36.3252 129.8 36.4001L131 36.7001L133 37.4001C133.359 37.5324 133.663 37.7822 133.862 38.1088C134.062 38.4355 134.146 38.82 134.1 39.2001C134.122 39.6668 133.981 40.1268 133.7 40.5001C133.407 40.8812 133.031 41.1893 132.6 41.4001C132.056 41.6042 131.48 41.7059 130.9 41.7001C130.087 41.7663 129.276 41.5547 128.6 41.1001C128.013 40.6221 127.622 39.9464 127.5 39.2001Z" fill="#010101"/>
<path fill-rule="evenodd" clip-rule="evenodd" d="M101.441 3.69916L41.3411 8.69916L41.3342 8.69972C39.1561 8.87206 37.0962 9.76048 35.476 11.2264C33.8558 12.6923 32.7663 14.6533 32.3776 16.8034L31.9826 18.9758C31.9193 19.4143 31.8926 19.8573 31.9027 20.3001C31.9633 20.9273 32.1444 21.537 32.4361 22.0957C32.7353 22.6685 33.1449 23.1764 33.6414 23.5901C34.1378 24.0038 34.7112 24.3151 35.3286 24.5061C35.946 24.697 36.5951 24.7639 37.2384 24.7027L54.0304 23.1034C57.0466 22.7897 60.0708 23.6194 62.5046 25.4286C64.9398 27.2388 66.6062 29.8975 67.1741 32.8781C67.3232 33.6483 67.4004 34.0534 67.4371 34.2568L67.4395 34.2702C67.4506 34.3312 67.4763 34.472 67.485 34.5908C67.4869 34.6173 67.4912 34.681 67.4892 34.7617C67.4891 34.7655 67.489 34.7697 67.4888 34.7741C67.5088 34.8959 67.5362 35.0583 67.5735 35.2729C67.7054 35.885 67.7824 36.5077 67.8035 37.1336C67.8792 38.8249 67.6214 40.5147 67.0446 42.1065C66.4666 43.7019 65.5797 45.1677 64.4345 46.4199C63.2893 47.672 61.9085 48.6861 60.3709 49.404C58.8334 50.1218 57.1694 50.5294 55.4741 50.6034L55.4718 50.6035L1.07178 52.9035L0.927734 49.4966L55.3254 47.1967L55.3277 47.1966C56.5742 47.1418 57.7978 46.842 58.9283 46.3141C60.0596 45.786 61.0756 45.0399 61.9181 44.1186C62.7607 43.1972 63.4133 42.1188 63.8386 40.945C64.2639 39.7711 64.4535 38.525 64.3965 37.2778L64.396 37.2667L64.3957 37.2556C64.3815 36.8216 64.3275 36.3898 64.2344 35.9656L64.2264 35.9291L64.22 35.8922C64.1239 35.3395 64.0738 35.0288 64.0569 34.8661C64.0541 34.839 64.0504 34.7989 64.0479 34.7525C64.0473 34.74 64.0457 34.7102 64.0454 34.6684C64.004 34.4479 63.9356 34.0912 63.8258 33.524L63.8248 33.5186C63.4174 31.3767 62.2201 29.4661 60.4703 28.1653C58.7204 26.8646 56.5458 26.2687 54.3773 26.4958L54.3694 26.4966L37.5614 28.0974C36.4699 28.2011 35.3684 28.0878 34.321 27.7638C33.2735 27.4398 32.3006 26.9116 31.4583 26.2097C30.6161 25.5078 29.9211 24.6461 29.4135 23.6743C28.906 22.7024 28.5959 21.6397 28.5011 20.5474L28.4969 20.4986L28.4955 20.4497C28.476 19.7813 28.5153 19.1124 28.6131 18.4509L28.6172 18.4229L29.022 16.1967C29.5447 13.3056 31.0096 10.6689 33.1882 8.69776C35.3659 6.72745 38.1343 5.53302 41.0618 5.30062C41.0629 5.30053 41.0641 5.30044 41.0653 5.30034L101.158 0.300903L101.441 3.69916Z" fill="#010101"/>
</svg>
